<?xml version="1.0" encoding="UTF-8"?>
<svg id="Layer_2" data-name="Layer 2" xmlns="http://www.w3.org/2000/svg" viewBox="0 0 371.41 261.22">
  <defs>
    <style>
      .cls-1 {
        fill: #5c91d1;
      }

      .cls-1, .cls-2, .cls-3, .cls-4, .cls-5, .cls-6, .cls-7, .cls-8 {
        stroke-width: 0px;
      }

      .cls-2 {
        fill: #5c9600;
      }

      .cls-3 {
        fill: #70e6fa;
      }

      .cls-4 {
        fill: #a33b82;
      }

      .cls-5 {
        fill: #666;
      }

      .cls-6 {
        fill: #96e300;
      }

      .cls-7 {
        fill: #fff;
      }

      .cls-8 {
        fill: #e65296;
      }
    </style>
  </defs>
  <g id="Layer_1-2" data-name="Layer 1">
    <g>
      <g>
        <g>
          <path class="cls-6" d="m132.58,130.97l-10.7-86.81C118.48,16.58,93.37-3.02,65.8.38,38.22,3.78,18.62,28.88,22.02,56.46l10.69,86.81,99.86-12.3Z"/>
          <path class="cls-2" d="m132.8,132.77c.78,6.3-20.95,14.14-48.53,17.54-27.57,3.4-50.56,1.06-51.33-5.23-.77-6.28,20.96-14.14,48.53-17.54,27.57-3.39,50.56-1.04,51.33,5.23Z"/>
          <g>
            <rect class="cls-5" x="61.25" y="141.25" width="9.06" height="58.91" transform="translate(-20.39 9.33) rotate(-7.03)"/>
            <rect class="cls-5" x="102.63" y="136.15" width="9.06" height="58.91" transform="translate(-19.44 14.34) rotate(-7.02)"/>
          </g>
        </g>
        <path class="cls-7" d="m89.77,86.78c-2.34.77-6.83,1.66-10.37,2.09-8.53,1.05-17.38.11-18.97-12.82l-4.17-33.87c-.09-.74.5-1.42,1.23-1.51l10.87-1.34c.73-.09,1.41.44,1.5,1.17l4.17,33.87c.32,2.6,1.21,3.23,3.61,2.93l10.8-1.33c.73-.09,1.41.44,1.5,1.17l1,8.14c.1.8-.32,1.26-1.17,1.49Z"/>
      </g>
      <g>
        <g>
          <path class="cls-8" d="m235.81,138.36l12.62-77.9c4.01-24.75-12.79-48.06-37.54-52.07-24.74-4.01-48.05,12.8-52.06,37.55l-12.62,77.9,89.61,14.52Z"/>
          <path class="cls-4" d="m235.55,139.97c-.92,5.64-21.71,6.97-46.46,2.96-24.74-4.01-44.06-11.83-43.14-17.48.91-5.63,21.71-6.96,46.45-2.96,24.75,4.01,44.07,11.84,43.15,17.48Z"/>
          <g>
            <rect class="cls-5" x="141.35" y="151.85" width="53.16" height="8.18" transform="translate(-12.88 296.74) rotate(-80.79)"/>
            <rect class="cls-5" x="178.49" y="157.86" width="53.15" height="8.18" transform="translate(12.4 338.48) rotate(-80.8)"/>
          </g>
        </g>
        <path class="cls-7" d="m211.04,89.48c-2.32-.07-6.09-.25-11.9-1.19-7.65-1.24-15.02-4.28-13.14-15.88l3.04-18.78c1.87-11.55,9.83-12.16,17.49-10.92,5.81.94,9.44,1.96,11.66,2.63.76.25,1.12.67,1,1.39l-1.18,7.3c-.1.65-.73,1.11-1.39,1l-12.08-1.96c-2.15-.35-2.97.19-3.35,2.52l-.7,4.37,14.71,2.38c.66.11,1.11.73,1,1.39l-1.14,7.06c-.11.66-.73,1.11-1.39,1.01l-14.71-2.39-.81,4.97c-.38,2.33.23,3.1,2.38,3.45l12.08,1.96c.66.11,1.11.73,1,1.39l-1.18,7.3c-.12.71-.59,1.01-1.39,1Z"/>
      </g>
      <g>
        <g>
          <path class="cls-3" d="m325.5,162.93l30.66-60.14c9.75-19.1,2.15-42.48-16.94-52.23-19.11-9.75-42.49-2.16-52.23,16.95l-30.66,60.14,69.17,35.27Z"/>
          <path class="cls-1" d="m324.86,164.18c-2.22,4.36-19.51-.01-38.61-9.75-19.11-9.75-32.79-21.17-30.57-25.53,2.22-4.36,19.51,0,38.61,9.76,19.09,9.74,32.78,21.17,30.56,25.52Z"/>
          <g>
            <rect class="cls-5" x="242.87" y="155.98" width="45.47" height="7" transform="translate(3.05 323.93) rotate(-63.04)"/>
            <rect class="cls-5" x="271.54" y="170.6" width="45.47" height="6.99" transform="translate(5.58 357.3) rotate(-63.01)"/>
          </g>
        </g>
        <path class="cls-7" d="m306.36,111.35c-4.38-2.24-7.99-4.54-10.17-6.18-.92-.7-1.2-1.31-.56-2.56l15.31-30.02c.63-1.24,1.29-1.38,2.4-1.04,2.61.81,6.54,2.34,10.97,4.61,9.15,4.66,12.63,12.31,7.33,22.71l-2.59,5.08c-5.29,10.39-13.5,12.08-22.69,7.4Zm15.81-17.31c2.83-5.55,1.74-7.96-1.96-9.84-.56-.28-1.29-.66-2.66-1.3l-9.72,19.07c.3.21,2.01,1.08,2.61,1.39,3.69,1.88,6.29,1.35,9.14-4.24l2.59-5.08Z"/>
      </g>
      <g>
        <path class="cls-5" d="m25.74,232.43h-7.32v27.37c0,.54-.44.98-.98.98h-8.01c-.54,0-.99-.44-.99-.98v-27.37H.98c-.54,0-.98-.39-.98-.93v-6.29c0-.54.44-.93.98-.93h24.76c.54,0,1.03.39,1.03.93v6.29c0,.54-.49.93-1.03.93Z"/>
        <path class="cls-5" d="m72.57,260.64c-1.87.24-4.91.59-9.68.59-6.29,0-12.58-1.47-12.58-11.01v-15.42c0-9.48,6.29-11.01,12.58-11.01,4.77,0,7.81.35,9.68.59.64.1.98.39.98.98v5.99c0,.54-.44.99-.98.99h-9.93c-1.77,0-2.36.54-2.36,2.46v3.59h12.09c.54,0,.98.44.98.98v5.8c0,.54-.44.99-.98.99h-12.09v4.07c0,1.92.59,2.46,2.36,2.46h9.93c.54,0,.98.44.98.98v5.99c0,.6-.34.89-.98.99Z"/>
        <path class="cls-5" d="m120.13,260.34c-1.28.44-3.78.88-6.88.88-9.04,0-15.13-4.91-15.13-16.16v-5.06c0-11.25,6.09-16.17,15.13-16.17,3.1,0,5.6.44,6.88.88.79.24,1.08.39,1.08,1.08v6.29c0,.68-.2,1.03-1.03.93-2.02-.2-4.08-.44-6.88-.44-2.65,0-5.06,1.18-5.06,7.42v5.06c0,6.19,2.36,7.42,5.06,7.42s4.72-.2,6.88-.44c.88-.1,1.03.35,1.03.93v6.29c0,.64-.29.83-1.08,1.08Z"/>
        <path class="cls-5" d="m175.21,260.78h-8.01c-.54,0-.98-.44-.98-.98v-13.36h-10.27v13.36c0,.54-.44.98-.98.98h-8.01c-.54,0-1.03-.44-1.03-.98v-34.59c0-.54.49-.93,1.03-.93h8.01c.54,0,.98.39.98.93v12.58h10.27v-12.58c0-.54.44-.93.98-.93h8.01c.54,0,.99.39.99.93v34.59c0,.54-.44.98-.99.98Z"/>
        <path class="cls-5" d="m230.68,260.78h-6.58c-.88,0-1.52-.39-2.06-1.33l-9.68-16.46c-.2-.35-.34-.4-.49-.4s-.24.1-.24.44v16.75c0,.54-.44.98-.98.98h-7.37c-.54,0-1.03-.44-1.03-.98v-33.71c0-.99.83-1.82,1.82-1.82h6.49c.93,0,1.47.54,1.96,1.43l9.98,16.95c.2.35.29.44.44.44s.25-.05.25-.44v-17.39c0-.54.44-.98.98-.98h7.37c.54,0,.99.44.99.98v33.71c0,.98-.84,1.82-1.82,1.82Z"/>
        <path class="cls-5" d="m267.59,260.78h-8.06c-.54,0-.98-.44-.98-.98v-34.59c0-.54.44-.93.98-.93h8.06c.54,0,.98.39.98.93v34.59c0,.54-.44.98-.98.98Z"/>
        <path class="cls-5" d="m315.73,260.34c-1.28.44-3.78.88-6.88.88-9.04,0-15.13-4.91-15.13-16.16v-5.06c0-11.25,6.09-16.17,15.13-16.17,3.1,0,5.6.44,6.88.88.79.24,1.08.39,1.08,1.08v6.29c0,.68-.19,1.03-1.03.93-2.02-.2-4.08-.44-6.88-.44-2.65,0-5.06,1.18-5.06,7.42v5.06c0,6.19,2.36,7.42,5.06,7.42s4.72-.2,6.88-.44c.88-.1,1.03.35,1.03.93v6.29c0,.64-.29.83-1.08,1.08Z"/>
        <path class="cls-5" d="m361.09,259.85l-1.38-6.83h-8.74l-1.38,6.83c-.1.49-.29.93-.98.93h-8.5c-.74,0-.88-.49-.79-1.03l6.59-30.07c1.08-4.86,4.77-5.84,9.43-5.84s8.35.98,9.43,5.84l6.58,30.07c.15.6,0,1.03-.74,1.03h-8.55c-.69,0-.88-.44-.98-.93Zm-5.21-27.17c-.1-.44-.1-.68-.54-.68s-.44.24-.54.68l-2.41,12.48h5.89l-2.41-12.48Z"/>
      </g>
    </g>
  </g>
</svg>